<svg xmlns="http://www.w3.org/2000/svg" viewBox="0 0 150 150">
  <path fill="#2A2A2A" d="M28.8 75.5h-8.3c-1.4 0-2.5 1.1-2.5 2.5v8.3c0 1.4 1.1 2.5 2.5 2.5h8.3c1.4 0 2.5-1.1 2.5-2.5V78c0-1.4-1.1-2.5-2.5-2.5zm-2.5 8.3H23v-3.3h3.3v3.3zM53.7 75.5h-8.3c-1.4 0-2.5 1.1-2.5 2.5v8.3c0 1.4 1.1 2.5 2.5 2.5h8.3c1.4 0 2.5-1.1 2.5-2.5V78c0-1.4-1.1-2.5-2.5-2.5zm-2.5 8.3h-3.3v-3.3h3.3v3.3zM28.8 50.6h-8.3c-1.4 0-2.5 1.1-2.5 2.5v8.3c0 1.4 1.1 2.5 2.5 2.5h8.3c1.4 0 2.5-1.1 2.5-2.5v-8.3c0-1.4-1.1-2.5-2.5-2.5zm-2.5 8.3H23v-3.3h3.3v3.3zM53.7 50.6h-8.3c-1.4 0-2.5 1.1-2.5 2.5v8.3c0 1.4 1.1 2.5 2.5 2.5h8.3c1.4 0 2.5-1.1 2.5-2.5v-8.3c0-1.4-1.1-2.5-2.5-2.5zm-2.5 8.3h-3.3v-3.3h3.3v3.3zM78.6 50.6h-8.3c-1.4 0-2.5 1.1-2.5 2.5v8.3c0 1.4 1.1 2.5 2.5 2.5h8.3c1.4 0 2.5-1.1 2.5-2.5v-8.3c0-1.4-1.1-2.5-2.5-2.5zm-2.5 8.3h-3.3v-3.3h3.3v3.3zM95.2 63.9l7.9-1.3c1.4 0 2.9-1.2 2.9-2.6v-6.9c0-1.4-1.1-2.5-2.5-2.5h-8.3c-1.4 0-2.5 1.1-2.5 2.5v8.3c0 1.4 1.2 2.5 2.5 2.5zm2.5-8.3h3.3v3.3h-3.3v-3.3z"/>
  <path fill="#2A2A2A" d="M106 54.4c-24.2 0-44 19.7-44 44s19.7 44 44 44 44-19.7 44-44-19.7-44-44-44zm0 79.3c-19.5 0-35.4-15.9-35.4-35.4S86.5 63 106 63s35.4 15.9 35.4 35.4-15.8 35.3-35.4 35.3z"/>
  <path fill="#2A2A2A" d="M122.7 104.8H106c-1.6 0-2.9-1.3-2.9-2.9V78c0-1.6 1.3-2.9 2.9-2.9 1.6 0 2.9 1.3 2.9 2.9v21h13.7c1.6 0 2.9 1.3 2.9 2.9s-1.2 2.9-2.8 2.9z"/>
  <path fill="#2A2A2A" d="M62.9 106.8H8.3V40.9h107.5v14.6c2.9.7 5.6 1.6 8.3 2.8V19.8c0-2.1-1.7-3.8-3.8-3.8h-12.8v-4.5c0-2.1-1.7-3.8-3.8-3.8s-3.8 1.7-3.8 3.8V16H91v-4.5c0-2.1-1.7-3.8-3.8-3.8s-3.8 1.7-3.8 3.8V16h-8.9v-4.5c0-2.1-1.7-3.8-3.8-3.8-2.1 0-3.8 1.7-3.8 3.8V16H58v-4.5c0-2.1-1.7-3.8-3.8-3.8s-3.8 1.7-3.8 3.8V16h-8.9v-4.5c0-2.1-1.7-3.8-3.8-3.8s-3.8 1.7-3.8 3.8V16H25v-4.5c0-2.1-1.7-3.8-3.8-3.8s-3.8 1.7-3.8 3.8V16H3.8C1.7 16 0 17.7 0 19.8v91.4c0 2.1 1.7 3.8 3.8 3.8h61.6c-1.1-2.6-1.9-5.3-2.5-8.2zm-55-82.9h8.5v4.3c0 2.2 1.8 4 4 4s4-1.8 4-4v-4.3H33v4.3c0 2.2 1.8 4 4 4s4-1.8 4-4v-4.3h8.5v4.3c0 2.2 1.8 4 4 4s4-1.8 4-4v-4.3H66v4.3c0 2.2 1.8 4 4 4s4-1.8 4-4v-4.3h8.5v4.3c0 2.2 1.8 4 4 4s4-1.8 4-4v-4.3H99v4.3c0 2.2 1.8 4 4 4s4-1.8 4-4v-4.3h8.5v8.5H7.9v-8.5z"/>
</svg>