<svg xmlns="http://www.w3.org/2000/svg" viewBox="0 0 150 150">
  <path fill="#2A2A2A" d="M4.8 116.6c-2.6 0-4.8-2.1-4.8-4.8V38.2c0-2.6 2.1-4.8 4.8-4.8s4.8 2.1 4.8 4.8v73.7c0 2.6-2.2 4.7-4.8 4.7zM145.2 116.6c-2.6 0-4.8-2.1-4.8-4.8V71.4c0-2.6 2.1-4.8 4.8-4.8s4.8 2.1 4.8 4.8v40.4c0 2.7-2.1 4.8-4.8 4.8z"/>
  <path fill="#2A2A2A" d="M145.2 95.2H4.8c-2.6 0-4.8-2.1-4.8-4.8 0-2.6 2.1-4.8 4.8-4.8h140.4c2.6 0 4.8 2.1 4.8 4.8 0 2.7-2.1 4.8-4.8 4.8zM129.6 76.2H21c-2.6 0-4.8-2.1-4.8-4.8 0-2.6 2.1-4.8 4.8-4.8h108.6c2.6 0 4.8 2.1 4.8 4.8 0 2.7-2.1 4.8-4.8 4.8z"/>
  <path fill="#2A2A2A" d="M133.6 71.4H58.9V46.5c0-.8.6-1.4 1.4-1.4H128c3.1 0 5.6 2.5 5.6 5.6v20.7z"/>
  <circle fill="#2A2A2A" cx="39.3" cy="50.4" r="11"/>
</svg>
