<svg xmlns="http://www.w3.org/2000/svg" viewBox="0 0 150 150">
  <path fill="#2A2A2A" d="M35.6 114.9c-5.7 0-10.3-4.6-10.3-10.3 0-5.7 4.6-10.3 10.3-10.3 5.7 0 10.3 4.6 10.3 10.3 0 5.7-4.7 10.3-10.3 10.3zM117.9 114.8c-5.6 0-10.2-4.6-10.2-10.2s4.6-10.2 10.2-10.2 10.2 4.6 10.2 10.2-4.6 10.2-10.2 10.2zM124.1 72.8c-.4 0-.7-.1-1.1-.2L106.9 68c-1.7-.5-2.9-2-2.9-3.8V51.1c0-2 1.6-3.6 3.6-3.6h5.5c1.4 0 2.6.7 3.3 1.9l11 17.4c.8 1.2.8 2.7.1 4-.6 1.2-1.9 2-3.4 2z"/>
  <path fill="#2A2A2A" d="M148.7 79.3l-25.3-41.4c-1.5-2.5-4.3-4-7.2-4l-107.8.2c-4.6 0-8.4 3.8-8.4 8.4v57c0 4.7 3.8 8.4 8.4 8.4h13.4v-3.5c.2-7.4 6.3-13.5 13.8-13.5 7.4 0 13.6 6.1 13.7 13.5v3.5H104v-3.5c.1-7.4 6.3-13.5 13.7-13.5 7.4 0 13.6 6.1 13.7 13.5v3.5h10.1c4.7 0 8.4-3.8 8.4-8.4V83.7c.1-1.6-.4-3.1-1.2-4.4zm-92.6 21.4c-1.9-9.8-10.5-17-20.5-17S17 91 15.1 100.7H8.4c-.7 0-1.3-.6-1.3-1.2v-57c0-.7.6-1.2 1.3-1.2l107.8-.3c.4 0 .8.2 1.1.6L142.6 83c.1.2.2.4.2.7v15.8c0 .7-.6 1.2-1.3 1.2h-3.3c-1.9-9.8-10.5-17-20.5-17S99 91 97.2 100.7H56.1z"/>
  <path fill="#2A2A2A" d="M48.8 45.1L32.2 81.3h8.1l3.2-6.8h7.8v6.8h7V45.1h-9.5zm-2.1 22.1l4.4-9.6v9.6h-4.4z"/>
  <path fill="#2A2A2A" d="M74.5 45.1L57.8 81.3h8l3.2-6.8h7.8v6.8h7V45.1h-9.3zm-2.1 22.1l4.4-9.6v9.6h-4.4z"/>
</svg>