<svg xmlns="http://www.w3.org/2000/svg" viewBox="0 0 150 150">
  <path fill="#2A2A2A" d="M105.5 139.6h-61c-5 0-9-4-9-9V40.7c0-5 4-9 9-9h60.9c5 0 9 4 9 9v89.8c.1 5-4 9.1-8.9 9.1zm-61-99.1l-.3 90.1 61.2.3c.1 0 .3-.1.3-.3V40.7l-61.2-.2z"/>
  <path fill="#2A2A2A" d="M94.3 39.4H55.7V6.7c0-3.7 3-6.7 6.7-6.7h25.2c3.7 0 6.7 3 6.7 6.7v32.7zm-32.1-6.6h25.5V6.7l-25.3-.2-.2 26.3zM93 122.2H57c-2.7 0-4.9-2.2-4.9-4.9V93.4c0-2.7 2.2-4.9 4.9-4.9h36c2.7 0 4.9 2.2 4.9 4.9v23.9c0 2.7-2.2 4.9-4.9 4.9zm-34.3-6.6h32.6V95H58.7v20.6z"/>
  <circle fill="#2A2A2A" cx="55.4" cy="143.1" r="6.9"/>
  <circle fill="#2A2A2A" cx="55.4" cy="143.1" r="6.9"/>
  <circle fill="#2A2A2A" cx="94.6" cy="143.1" r="6.9"/>
  <path fill="#2A2A2A" d="M67.3 32.3c1-3.8 4.1-6.5 7.8-6.5 3.6 0 6.7 2.7 7.7 6.5"/>
</svg>