<?xml version="1.0" encoding="utf-8"?>
<!-- Generator: Adobe Illustrator 20.0.0, SVG Export Plug-In . SVG Version: 6.00 Build 0)  -->
<svg version="1.1" id="Layer_1" xmlns="http://www.w3.org/2000/svg" xmlns:xlink="http://www.w3.org/1999/xlink" x="0px" y="0px"
	 viewBox="0 0 80.9 39.1" style="enable-background:new 0 0 80.9 39.1;" xml:space="preserve">
<style type="text/css">
	.st0{fill:#120D0C;}
</style>
<g id="group-178" transform="translate(12891.246 -6809.526)">
	<path class="st0" d="M-12878.1,6833.2h-3.6v-7.7c0-0.9-0.2-1.7-0.5-2.1s-0.8-0.7-1.5-0.7c-0.9,0-1.6,0.3-2,1s-0.6,1.8-0.6,3.3v6.2
		h-3.6v-13.1h2.7l0.5,1.7h0.2c0.4-0.6,0.9-1.1,1.5-1.4s1.4-0.5,2.3-0.5c2,0,3.3,0.6,4,1.9h0.3c0.4-0.6,0.9-1.1,1.6-1.4
		s1.5-0.5,2.3-0.5c1.5,0,2.6,0.4,3.4,1.1s1.1,2,1.1,3.7v8.5h-3.6v-7.7c0-0.9-0.2-1.7-0.5-2.1s-0.8-0.7-1.5-0.7c-0.9,0-1.5,0.3-2,0.9
		s-0.7,1.6-0.7,3V6833.2z"/>
	<path class="st0" d="M-12868.2,6820.1h3.9l2.5,7.4c0.2,0.6,0.4,1.4,0.4,2.3h0.1c0.1-0.8,0.3-1.6,0.5-2.3l2.4-7.4h3.8l-5.5,14.8
		c-0.5,1.4-1.2,2.4-2.2,3.1s-2,1-3.3,1c-0.6,0-1.2-0.1-1.8-0.2v-2.8c0.4,0.1,0.9,0.2,1.4,0.2c0.6,0,1.2-0.2,1.7-0.6s0.8-1,1.1-1.8
		l0.2-0.6L-12868.2,6820.1z"/>
	<path id="A_3_" d="M-12843.2,6812.9l-15.4,33.4h7.5l2.9-6.3h7.2v6.3h6.5v-33.4H-12843.2z M-12845.2,6833.3l4.1-8.9v8.9H-12845.2z"
		/>
	<path id="A_2_" d="M-12819.5,6812.9l-15.4,33.4h7.5l2.9-6.3h7.2v6.3h6.5v-33.4H-12819.5z M-12821.4,6833.3l4.1-8.9v8.9H-12821.4z"
		/>
</g>
</svg>
