<?xml version="1.0" encoding="utf-8"?>
<!-- Generator: Adobe Illustrator 19.1.0, SVG Export Plug-In . SVG Version: 6.00 Build 0)  -->
<svg version="1.1" id="Layer_1" xmlns="http://www.w3.org/2000/svg" xmlns:xlink="http://www.w3.org/1999/xlink" x="0px" y="0px"
	 viewBox="27 0 153 100" style="enable-background:new 27 0 153 100;" xml:space="preserve">
<style type="text/css">
	.st0{fill:#3D3E39;}
</style>
<path class="st0" d="M130,101c-0.9-6.4,3-9.3,7.8-12.5c6.4-4.3,12.7-9.1,17.6-14.9c6.2-7.5,8.7-16.7,6.1-26.6c-1.2-4.5-4-6-8.5-5.1
	c-5.2,1.1-10.1,3.8-15.9,1.9c-8.2-2.6-13.5-7.9-15.2-16c-1.7-8,1.4-14.7,7.3-20c2.9-2.6,6.6-4.5,9.9-6.7c5,0,10,0,15,0
	c0.4,0.4,0.6,1.1,1.1,1.3C168,7,175.8,16.3,179.8,29c0.1,0.5,0.8,0.7,1.3,1.1c0,7,0,14,0,21c-0.4,0.2-1.1,0.4-1.1,0.6
	c-5.7,23.4-21.1,37.9-42.6,47c-1.2,0.5-2.2,1.6-3.3,2.4C132.7,101,131.3,101,130,101z"/>
<path class="st0" d="M63,1c3.9,2.6,8,4.8,11.5,7.9C88.7,21.2,91.4,37,86.6,54.2c-6.2,22.3-21.3,36.6-42.7,44.5
	c-1.4,0.5-2.6,1.6-3.9,2.3c-0.3,0-0.7,0-1,0c-1.7-5.1-0.6-8.8,4.8-11.3c3.6-1.7,6.8-4.1,10-6.5c10.7-8,17.5-18.1,16.7-32.2
	c-0.4-8.2-4.1-11.1-12-8.5c-8.7,3-16.7,2.6-23.4-4.2C32.7,36,31,32.8,29,30c0-3.7,0-7.3,0-11c3.8-7.9,9.1-14.3,17.8-17.1
	C47,1.8,46.9,1.3,47,1C52.3,1,57.7,1,63,1z"/>
</svg>
