<?xml version="1.0" encoding="utf-8"?>
<!-- Generator: Adobe Illustrator 20.0.0, SVG Export Plug-In . SVG Version: 6.00 Build 0)  -->
<svg version="1.1" id="Layer_1" xmlns="http://www.w3.org/2000/svg" xmlns:xlink="http://www.w3.org/1999/xlink" x="0px" y="0px"
	 viewBox="0 0 35 35" style="enable-background:new 0 0 35 35;" xml:space="preserve">
<style type="text/css">
	.st0{fill:#F8F7F7;}
</style>
<g>
	<path class="st0" d="M17.3,0C7.8,0,0,7.8,0,17.3s7.8,17.3,17.3,17.3s17.3-7.8,17.3-17.3S26.9,0,17.3,0z M17.3,31.4
		c-7.8,0-14.1-6.3-14.1-14.1S9.5,3.2,17.3,3.2s14.1,6.3,14.1,14.1S25.1,31.4,17.3,31.4z"/>
	<path class="st0" d="M17.3,22.9c1.1,0,1.9-0.9,1.9-1.9V8c0-1.1-0.9-1.9-1.9-1.9S15.4,6.9,15.4,8V21C15.4,22.1,16.3,22.9,17.3,22.9z
		"/>
	<path class="st0" d="M17.3,24.3L17.3,24.3c-1.2,0-2.2,1-2.2,2.2s1,2.2,2.2,2.2s2.2-1,2.2-2.2S18.6,24.3,17.3,24.3z"/>
</g>
</svg>
