<?xml version="1.0" encoding="utf-8"?>
<!-- Generator: Adobe Illustrator 19.2.1, SVG Export Plug-In . SVG Version: 6.00 Build 0)  -->
<svg version="1.1" id="Layer_1" xmlns="http://www.w3.org/2000/svg" xmlns:xlink="http://www.w3.org/1999/xlink" x="0px" y="0px"
	 viewBox="0 0 500 500" style="enable-background:new 0 0 500 500;" xml:space="preserve">
<style type="text/css">
	.st0{display:none;}
	.st1{display:inline;fill:#272822;}
	.st2{display:inline;}
	.st3{fill:#272822;}
</style>
<g id="Layer_1_1_" class="st0">
	<polygon class="st1" points="60,469.3 250,279.2 440,469.3 469.3,440 279.2,250 469.3,60 440,30.7 250,220.8 60,30.7 30.7,60 
		220.8,250 30.7,440 	"/>
</g>
<g id="Layer_2" class="st0">
	<g id="pen-mini" class="st2">
		<polygon class="st3" points="425,157.4 341.7,74 391.7,24 475,107.4 		"/>
		<path class="st3" d="M325,90.7L58.2,357.4l-33.3,100L41.6,474l100-33.3L408.3,174L325,90.7z M128.9,420.1l-75,25l25-75l12.7-12.7
			l50,50L128.9,420.1z"/>
	</g>
</g>
<path class="st3" d="M352.4,235.3c-22.9,0-44.1,6.7-62.1,18.1c7.8-10.7,12.9-26.7,16-44.2c5.9-0.1,13.7-13,17.9-30.1
	c4.5-18.2,3.3-34.2-2.7-35.7c-0.6-0.2-1.2-0.1-1.8,0.1c1.4-14.7,0.9-28.6-3.2-34.7c-13-18.6-14.1-35.1-33.8-42.1
	c-19.7-7.1,4-32.7,4-32.7s-84.3,2.4-102.2,32.6c-10.5,17.7-15.6,23.5-28.7,42.2c-4.2,6.1-4.3,20-2.5,34.7c-0.8-0.2-1.5-0.3-2.2-0.1
	c-6,1.5-7.2,17.5-2.7,35.7c4.2,17.2,12,30,17.9,30.1c3.6,20.2,9.6,38.9,19.7,49.2c25.2,25.5-25.2,50.9-25.2,50.9s-15.7,6.6-17.5,7.4
	c-24.4,10.5-67.7,30.1-83.2,43.6c-22,19.1-25.2,76.4-25.2,76.4h201.3h37.4c20.7,19.2,48.3,31,78.8,31c30.4,0,58.1-11.8,78.8-31h6.4
	c0,0-0.1-2.2-0.5-5.9c19.4-20.8,31.4-48.6,31.4-79.3C468.5,287.3,416.5,235.3,352.4,235.3z M52.2,421.1c2.9-19.4,9.1-41.4,18.1-49.2
	c10-8.7,39.6-24,79.1-41c1.6-0.6,17.4-7.3,17.4-7.3c7-3.5,37.2-19.9,41.2-44.6c1.3-7.9,0.4-19.8-11.1-31.4
	c-4.6-4.6-10.9-15.4-15.5-41l-2.2-12.5l-8.5-0.2c-2-2.9-5.1-9.2-7.4-18.4c-1.3-5.4-2-10.1-2.2-13.7l10.2,2.7l-2.8-22.8
	c-1.9-15.7-0.6-23,0.1-24.5c3.4-4.9,6.5-9.1,9.3-13c6.9-9.6,11.9-16.5,19.7-29.6c6.8-11.5,35.3-19.2,62.1-22.8
	c-0.6,3.7-0.6,7.4,0.3,11.2c1.2,4.9,5,13.8,17.3,18.2c7.4,2.7,9.8,6.7,15.6,18c2.8,5.5,6.1,11.8,10.8,18.5l0,0
	c-0.1,0,2.3,5.7,0.5,24.4l-1.9,20.9l9-1.9c-0.2,3.7-0.8,8.6-2.2,14.3c-2.3,9.3-5.4,15.5-7.3,18.4l-8.5,0.2l-2.2,12.5
	c-4.6,25.6-10.9,36.4-15.5,41c-10.2,10.3-12,20.8-11.4,28.6c-17.4,20.3-27.9,46.6-27.9,75.4c0,26.2,8.8,50.2,23.4,69.7H52.2V421.1z
	 M352.4,452c-55.6,0-100.6-45.1-100.6-100.6s45.1-100.6,100.6-100.6c55.6,0,100.6,45.1,100.6,100.6S408,452,352.4,452z"/>
<g>
	<path class="st3" d="M294.8,362.5c0-6.2,0-12.3,0-18.5c2.1-5.2,3.8-6.4,9.5-6.4c10,0,20,0,30,0c0.8,0,1.6-0.1,2.5-0.1
		c0-1.1,0-1.9,0-2.7c0-10.4,0-20.8,0-31.2c0-4.7,3.3-7.9,7.9-7.9c4.9,0,9.8,0.2,14.7-0.1c4.6-0.3,8.8,3.2,8.7,8.6
		c-0.2,10.2-0.1,20.5-0.1,30.7c0,0.8,0,1.6,0,2.7c1.2,0,2,0,2.9,0c10.5,0,20.9,0,31.4,0c4.5,0,7.6,3.2,7.6,7.7c0,5,0,10.1,0,15.1
		c0,5.3-3.1,8.4-8.4,8.4c-10.3,0-20.6,0-30.9,0c-0.8,0-1.6,0-2.6,0c0,1.1,0,1.9,0,2.7c0,9.9,0,19.9,0,29.8c0,5.6-1.2,7.4-6.4,9.5
		c-6.2,0-12.3,0-18.5,0c-4.7-1.6-6.5-4.9-6.4-9.8c0.2-9.8,0.1-19.5,0.1-29.3c0-0.9,0-1.8,0-2.9c-1,0-1.8,0-2.6,0
		c-9.8,0-19.7-0.1-29.5,0.1C299.7,369,296.4,367.2,294.8,362.5z"/>
</g>
</svg>
