<?xml version="1.0" standalone="no"?>
<!DOCTYPE svg PUBLIC "-//W3C//DTD SVG 20010904//EN"
 "http://www.w3.org/TR/2001/REC-SVG-20010904/DTD/svg10.dtd">
<svg version="1.0" xmlns="http://www.w3.org/2000/svg"
 width="700.000000pt" height="700.000000pt" viewBox="0 0 700.000000 700.000000"
 preserveAspectRatio="xMidYMid meet">
<metadata>
Created by potrace 1.11, written by Peter Selinger 2001-2013
</metadata>
<g transform="translate(0.000000,700.000000) scale(0.100000,-0.100000)"
fill="#000000" stroke="none">
<path d="M2308 5395 c-21 -44 -61 -129 -89 -190 -28 -60 -71 -155 -96 -210
-25 -55 -62 -136 -83 -180 -54 -115 -106 -226 -155 -335 -24 -52 -56 -124 -73
-160 -30 -66 -129 -280 -184 -400 -17 -36 -43 -92 -58 -125 -15 -33 -53 -116
-85 -185 -32 -69 -77 -167 -101 -218 -24 -51 -44 -95 -44 -97 0 -2 -20 -45
-44 -97 -57 -122 -108 -231 -136 -293 -13 -27 -42 -92 -66 -143 -24 -51 -44
-94 -44 -96 0 -2 -22 -51 -49 -108 -27 -56 -75 -159 -106 -228 -31 -69 -71
-154 -87 -190 -43 -92 -138 -299 -154 -338 l-14 -32 412 0 413 0 14 32 c8 18
48 105 89 193 137 294 148 320 182 395 19 41 35 77 37 79 2 3 685 5 774 2 l26
-1 0 -347 -1 -348 751 -3 c593 -2 753 1 760 10 6 7 29 54 51 103 22 50 76 167
120 260 43 94 95 206 116 250 l37 80 372 -2 c205 0 384 -1 398 -2 l27 -1 -1
-348 -2 -347 358 -3 357 -2 0 1853 0 1853 -475 0 c-303 -1 -477 -5 -483 -11
-5 -5 -48 -98 -97 -205 -49 -107 -107 -235 -130 -285 -80 -170 -170 -366 -263
-570 -28 -60 -68 -149 -91 -197 -22 -48 -90 -197 -152 -330 -61 -134 -127
-277 -146 -318 -19 -41 -45 -97 -58 -125 -12 -27 -34 -75 -48 -105 -14 -30
-41 -89 -60 -130 -19 -41 -44 -95 -55 -120 -11 -25 -39 -85 -62 -135 -23 -49
-53 -114 -66 -142 -13 -29 -36 -79 -50 -110 -15 -32 -37 -80 -49 -108 -13 -27
-46 -99 -75 -160 -28 -60 -59 -126 -67 -145 -9 -19 -30 -66 -48 -105 -18 -38
-47 -104 -66 -145 -19 -41 -46 -99 -61 -130 l-26 -55 -1 1809 c0 995 -3 1811
-7 1815 -3 3 -218 6 -477 6 l-472 1 -37 -81z m280 -1687 c0 -266 -4 -485 -8
-488 -5 -3 -104 -5 -222 -4 -204 1 -213 2 -211 20 1 11 29 77 62 147 34 70 61
129 61 131 0 2 23 53 51 112 28 60 57 123 64 139 7 17 41 88 74 158 34 71 61
130 61 132 0 7 62 135 66 135 1 0 2 -217 2 -482z m2630 -3 c0 -359 -3 -485
-11 -486 -72 -5 -437 -2 -437 4 0 6 90 204 203 447 19 41 46 100 60 130 13 30
39 87 57 125 18 39 48 104 67 145 19 41 39 85 44 98 5 12 10 22 13 22 2 0 4
-218 4 -485z"/>
</g>
</svg>
