<svg xmlns="http://www.w3.org/2000/svg" viewBox="0 0 150 150">
  <path fill="#2A2A2A" d="M58.1 5.6C52.3 1.4 46.1-.5 39.8.1 34.5.6 30.1 2.4 27 5.3c-3.1 2.9-4.9 6.7-5.2 11.1-.4 5.8 2 12.1 6.5 17.3.1.1.2.2.2.3H6.1v42.6h5.3V150h127.1V76.7h5.3V34.1h-22.4c.1-.1.2-.2.2-.3 4.5-5.2 6.9-11.5 6.5-17.3-.3-4.4-2.1-8.2-5.2-11.1-3.2-3-7.5-4.7-12.9-5.2-6.3-.6-12.4 1.3-18.3 5.5-4.3 3.1-8.4 7.5-12.2 13.1-1.8 2.7-3.4 5.3-4.7 7.8-1.3-2.5-2.9-5.1-4.7-7.8-3.6-5.7-7.7-10.1-12-13.2zM17 48.2V45h116v20.8H17V48.2zm50.5 28.5h15v21.9L75 95.1l-7.5 3.5V76.7zm-31-50c-2.6-3-4.1-6.6-3.9-9.5.1-1.6.7-2.9 1.7-3.9 1.4-1.3 3.6-2.1 6.5-2.4 3.6-.3 7.1.8 10.8 3.4 3.2 2.3 6.5 5.8 9.6 10.3 2.2 3.3 4.1 6.6 5.5 9.4H48.9c-4.9-1.1-9.3-3.7-12.4-7.3zm91.2 112.4H22.3V76.7h34.2v38.9l18.4-8.5 18.4 8.5V76.7h34.2v62.4zm-39-114.2c3.1-4.6 6.3-8.1 9.6-10.4 3.7-2.7 7.2-3.8 10.8-3.4 2.8.3 5.1 1.1 6.5 2.4 1.1 1 1.6 2.3 1.7 3.9.2 2.9-1.3 6.5-3.9 9.5-3 3.5-7.4 6.1-12.4 7.4H83.4c1.3-3 3.1-6.2 5.3-9.4zm0 0"/>
</svg>