<svg xmlns="http://www.w3.org/2000/svg" viewBox="0 0 150 150">
  <g fill="#2A2A2A">
    <circle cx="61.5" cy="32.7" r="32.3"/>
    <path d="M148.8 75.2c-24.7 0-28.9-9.4-29-9.5-.2-.5-.6-.8-1.1-.8-.5 0-1 .3-1.1.8 0 .1-4.3 9.5-29 9.5-.7 0-1.2.6-1.2 1.2v42.1c0 17.2 29.6 30.4 30.9 30.9.2.1.3.1.5.1s.3 0 .5-.1c1.3-.5 30.9-13.7 30.9-30.9V76.4c-.2-.6-.7-1.2-1.4-1.2zm-5.6 40.9c0 13.5-23.2 23.8-24.2 24.2-.1.1-.3.1-.4.1-.1 0-.3 0-.4-.1-1-.4-24.1-10.7-24.1-24.2v-33c0-.5.4-1 1-1 19.3 0 22.6-7.4 22.7-7.4.1-.4.5-.6.9-.6s.7.2.9.6c0 .1 3.3 7.4 22.7 7.4.5 0 1 .4 1 1v33z"/>
    <path d="M138 89.9c-11.9 7.3-20.5 16.6-24 20.7l-9-7c-.2-.2-5.2 4.2-5 4.3l16.3 16.6c.1.1.3.2.5.2h.1c.2 0 .4-.2.5-.4 2.6-6.7 11.3-20.8 22.4-31 .2-.2.3-.5.2-.7 0-.1-1.8-2.8-2-2.7zM78.1 70.1c-3.2 1.6-16.9 7.3-31.8-.4 0 0-40.8-1.6-45.7 35.4 0 0-1.3 16.4 0 25.9 0 0 15 8.4 20.9 8.9-1.7-21 1.7-39 1.7-39s.9 24.8 6.8 41.6c0 0 33.1 6.4 58.8.3-6.1-6-10.7-13.1-10.7-20.9V70.1z"/>
  </g>
</svg>