<svg xmlns="http://www.w3.org/2000/svg" viewBox="0 0 150 150">
  <path fill="#414142" d="M149.9 51.3c1.3-3.9-9.2-8-13-8-3.3 0-4.5 2.8-4.7 3.8-4.2-9.1-12.6-26.4-16.6-26.9 0 0-10.9-3.9-40.6-3.9s-40.6 3.9-40.6 3.9c-4 .5-12.3 17.8-16.6 26.9-.2-1-1.4-3.8-4.7-3.8-3.8 0-14.3 4.1-13 8 1.3 3.9 9.4 6.5 11.9 7.1 0 0-.5 7.8-5 11-4.4 3.2-6.2 7-6.2 11.7V130c0 2 1.8 3.7 3.8 3.7h16.2c2 0 3.7-1.7 3.7-3.7v-7.3h100.8v7.3c0 2 1.7 3.7 3.7 3.7h16.2c2 0 3.8-1.7 3.8-3.7V81.1c0-4.7-1.7-8.4-6.2-11.7-4.4-3.2-5-11-5-11 2.7-.6 10.8-3.2 12.1-7.1zM19.4 93.8c-4.7 0-8.4-3.8-8.4-8.4 0-4.7 3.8-8.4 8.4-8.4 4.7 0 8.4 3.8 8.4 8.4 0 4.6-3.8 8.4-8.4 8.4zM75 54.1H29.8l11.3-24.6c3.2-2.3 27.1-2.6 33.9-2.7 6.9 0 30.7.4 33.9 2.7l11.3 24.6H75zm64.1 31.2c0 4.7-3.8 8.4-8.4 8.4-4.7 0-8.4-3.8-8.4-8.4 0-4.7 3.8-8.4 8.4-8.4 4.6 0 8.4 3.8 8.4 8.4z"/>
</svg>