<svg xmlns="http://www.w3.org/2000/svg" viewBox="0 0 150 150">
  <path fill="#2A2A2A" d="M5.2 87.8h12.2v48.9c0 2.9 2.4 5.2 5.2 5.2h35.8c2.9 0 5.2-2.4 5.2-5.2v-35.8h21.8v35.8c0 2.9 2.4 5.2 5.2 5.2h34c2.9 0 5.2-2.4 5.2-5.2V87.8h14.8c2.1 0 4-1.3 4.8-3.2.8-1.9.3-4.2-1.1-5.7L80.2 9.7c-2-2-5.3-2.1-7.3-.1L1.6 78.8C0 80.3-.4 82.6.4 84.6s2.7 3.2 4.8 3.2zm71.2-67l55.9 56.6h-7.5c-2.9 0-5.2 2.4-5.2 5.2v48.9H95.9V95.6c0-2.9-2.4-5.2-5.2-5.2H58.4c-2.9 0-5.2 2.4-5.2 5.2v35.8H27.9V82.5c0-2.9-2.4-5.2-5.2-5.2h-4.5l58.2-56.5zm0 0"/>
</svg>