<svg xmlns="http://www.w3.org/2000/svg" viewBox="0 0 150 150">
  <g fill="#2A2A2A">
    <path d="M132.1 24.8H17.9C8 24.8 0 32.9 0 42.8v64.5c0 9.9 8 17.9 17.9 17.9H132c9.9 0 17.9-8 17.9-17.9V42.8c.1-9.9-7.9-18-17.8-18zm8 82.4c0 4.4-3.6 8-8 8H17.9c-4.4 0-8-3.6-8-8V64h130.2v43.2zm0-57.3H9.9v-7.1c0-4.4 3.6-8 8-8H132c4.4 0 8 3.6 8 8v7.1zm0 0"/>
    <path d="M22.2 106h27.2c1 0 1.8-.8 1.8-1.8v-5.4c0-1-.8-1.8-1.8-1.8H22.2c-1 0-1.8.8-1.8 1.8v5.4c.1 1.1.9 1.8 1.8 1.8zm0 0"/>
    <g>
      <path d="M99.4 76.9l-13.3 29h6.5l2.5-5.5h6.2v5.5h5.6v-29h-7.5zm-1.7 17.6l3.6-7.7v7.7h-3.6z"/>
      <path d="M119.9 76.9l-13.3 29h6.5l2.5-5.5h6.2v5.5h5.6v-29h-7.5zm-1.6 17.6l3.6-7.7v7.7h-3.6z"/>
    </g>
  </g>
</svg>