<svg xmlns="http://www.w3.org/2000/svg" viewBox="0 0 150 150">
  <path fill="#2A2A2A" d="M58.9 48.3c.4-.6 1.2-1.9 1.7-3.1s0-1.2-1.2-.1c-1.2 1.1-1.9 2.5-1.7 3.1.3.6.8.6 1.2.1zM68.2 49.5c0-.5-.3-1.1-.6-1.4-.3-.3-.6-.1-.6.3-.1.5.2 1.1.6 1.4s.6.2.6-.3z"/>
  <path fill="#2A2A2A" d="M142.9 104.1c-.3-.4-.6-1.4-.8-2.2-.2-.8-1.2-2.3-2.4-3.2-1.1-.9-3.4-1.7-5-1.8s-3.7-.1-4.7-.1-1.9.7-1.9 1.4c-.1.7-.4 1.7-.6 2.1s-.9.3-1.4-.3-1.5-1.2-2.1-1.3c-.6-.2-.3-1.1.7-2.1s1.8-2.3 1.8-2.9-.6-2.1-1.4-3.4c-.8-1.3-1.7-2.3-2-2.4s-1.1-.4-1.8-.8-1.5-1.1-1.8-1.6c-.3-.5-.8-.8-1.2-.8-.4.1-.8.2-1.1.3-.2.1-.8 0-1.2-.1s-1-.3-1.2-.3-.1-.1.4-.2 1.1-.2 1.4-.1c.3.1 1 .1 1.5-.1.5-.1 1.2-.1 1.5.1.3.1.8.5 1.1.8.3.3.8.4 1.1.4s.9-.1 1.2 0c.3.1-.1-.8-1.1-1.9-.9-1.1-2-2.5-2.4-3.1-.4-.5-.6-1.4-.3-1.8s.7-.9.9-1 .1-.4-.4-.6-1-.7-1.2-1.1c-.2-.3-.5-.6-.7-.7-.2 0-.8-.9-1.3-1.8-.5-1-1.6-2.1-2.4-2.6s-2.4-1-3.5-1.2c-1.1-.3-2.1-.8-2.2-1.3-.1-.4-.3-.9-.6-1.1-.3-.2-.8-1.3-1.1-2.5-.4-1.2-1-2.8-1.4-3.5-.4-.7-1-2.5-1.3-4.1-.3-1.6-.8-3.3-1.1-3.8-.3-.5-.9-1-1.2-1-.3 0-1.4-1.2-2.3-2.6-1-1.4-2.2-2.7-2.8-2.8s-1.4-.5-1.8-.9c-.4-.4-1.4-.9-2.1-1.2s-1.6-.3-1.8 0c-.3.3-1 .8-1.6 1.2-.6.4-1.7.5-2.5.2-.8-.2-1.8-.4-2.2-.3-.4.1-1.2-.1-1.9-.3-.6-.2-1.3-.7-1.5-1-.2-.4 0-.5.4-.3s1.3.4 2.1.5c.8.1 1.9-.1 2.6-.3.6-.2 1.3-.8 1.5-1.3.2-.5.9-.9 1.6-.9.7 0 1.7-.3 2.3-.8s.6-1.1 0-1.3c-.6-.3-1.1-.8-1.2-1.2s-.3-.8-.5-1-1.1 0-2 .5c-.8.5-1.6.7-1.8.5s.3-.7.9-1.2 1.8-.8 2.6-.8c.8.1 1.8-.2 2.2-.6.5-.4.9-1 1-1.4.1-.4.4-.8.7-1 .3-.2.9-1.1 1.4-2 .5-.9 1.1-1.9 1.3-2.3.3-.4.5-1 .4-1.3 0-.3.2-1 .5-1.6.3-.6.5-1.3.4-1.5-.1-.2 0-1.1.3-1.9.3-.8 1-1.9 1.5-2.3.5-.5 1-1.3 1-1.8s-.7-1.6-1.5-2.3c-.8-.7-1.6-1.2-1.8-1.1-.2.1-1.4.3-2.8.3s-3.2 0-4-.2c-.8-.2-1.7-.1-2 0s-.8.3-1.2.3-1.2-.1-1.7-.3c-.5-.2-1.2-.3-1.6-.3-.4 0-.7.2-.8.4s-.5.5-1 .6c-.5.2-1.4.5-2 .8-.6.3-1.2.5-1.4.5-.2 0-.7.2-1.1.5-.4.3-.8.5-.9.3s.2-.7.7-1.3c.5-.6 1.4-1.8 1.9-2.6.5-.9.6-1.4.3-1.2-.4.2-1.1.2-1.6.1-.5-.2-.6-.5-.4-.7.3-.2.6-.7.7-1.1.1-.4 1.3-1.5 2.6-2.5s2.7-2.4 3.1-3 1.1-1.3 1.5-1.5c.5-.2 1-.8 1.2-1.4s.2-1.3 0-1.6c-.2-.3-.2-.8 0-1.2.3-.4.4-1 .4-1.2s-.6-.5-1.3-.5-1 .5-1.3.8-.8.4-1.3.3-1.3 0-2 .3c-.6.3-1.7.5-2.3.4s-1.5.1-2 .3-1.2.4-1.4.4c-.3 0-.8.2-1.1.5s-.5.3-.4 0-.1-.6-.4-.8-1 .2-1.5.7-.9.5-.7.1S71 1.1 70.2.8c-.8-.4-1.5-.3-1.6.2s-.4 1-.6 1.2c-.3.2-.4.7-.3 1.1s0 .8-.1.8-.3.5-.2 1c0 .5-.4 1.1-1 1.2-.6.1-.8.6-.5 1.1.3.5.3 1.2.1 1.7s-.6.9-.9.9 0 .5.7 1.1c.7.6 1.4 1.4 1.6 1.8s-.1.5-.8.1c-.7-.3-1.4-.4-1.7-.2-.2.2-.8.1-1.3-.2-.5-.3-.9-.4-.9-.2s.1.7.2 1c.1.3.1.8 0 1-.2.2-.5 0-.8-.5-.3-.5-.7-.5-.9 0-.2.5-.2 1.2 0 1.5s.3.8.1 1 0 .9.4 1.3c.4.5 1 .8 1.4.9s.3.2-.1.3c-.5.2-1.2.1-1.7-.2-.5-.3-.8.1-.7.9.1.8.2 1.6.2 1.8 0 .2.7.3 1.5.2.9-.1 1.1 0 .5.3-.6.3-1.1.6-1.1.8-.1.2 0 .4.2.5s.8 0 1.3-.2.9-.2.7-.1c-.1.1-.1.5.2.7.2.3.1.4-.3.2s-.9-.2-1-.1c-.2.1-.4.5-.5.9-.1.4 0 .8.2 1 .2.2.1.3-.2.4-.3.1-.8.4-1 .7s-.1.7.3.8.7.5.8.8c.1.3-.3.3-1 .1-.6-.2-1.2-.1-1.3.3-.1.4 0 .9.2 1 .2.2.3.5.2.8-.1.3-.5.7-.8.9-.3.2-1 .4-1.6.4-.6 0-1.3.2-1.6.5-.3.3-.3.6-.1.7s.8.2 1.3.2 1.2 0 1.5.1c.3.1.6.3.5.5s-.5.3-.9.3-.3.4.2.9 1.1.9 1.3.8c.2-.1.5.1.8.4s1.6-.6 3-2 2.3-2.2 2.1-1.8c-.2.4-.2.9 0 1 .2.1 0 .4-.4.5s-1 .9-1.4 1.7-.6 1.6-.5 1.8-.3 1-.7 1.8c-.4.8-.6 1.6-.4 1.7.2.1 0 1-.3 2-.4 1-.6 2.3-.5 2.9.1.6 0 1.4-.3 1.8-.3.4-.3.9-.1 1.2.2.3.6.5.8.4.2-.1.1.4-.4 1.1-.4.7-.9 2.1-.9 3-.1 1-.4 2-.7 2.3-.3.3-.6.8-.5 1s.6.4 1.4.4c.7 0 1.2-.4 1.1-.9-.1-.5.1-1.5.4-2.2.3-.7.5-1.7.5-2.1 0-.4.3-1.2.6-1.7.4-.5.4-1.8.2-3-.3-1.2-.3-2.2 0-2.2s1.2-.8 2-1.9c.9-1 1-1.1.4-.1s-1.2 2.4-1.3 3.1c-.1.7.1 1.4.3 1.6.2.2.5 0 .5-.4s.4-1.1.9-1.4c.4-.4.9-.1 1.1.5.2.7.6.5 1-.2.3-.8.6-1.9.5-2.4-.1-.6.1-1.1.4-1.3.3-.1.4.3.3 1s.4 1.7 1.1 2.3c.7.5.8.9.2.7-.6-.2-1.3.4-1.5 1.3-.2.9-.3 2.2-.1 2.9s.6 1.3.9 1.4.9.6 1.1 1.2c.2.6-.1 1.5-.6 2.1-.6.6-1.5 2.2-2 3.7-.6 1.5-.9 3.2-.8 3.9.1.7-.2.9-.7.6-.5-.3-.9 0-.9.7s.6 2.1 1.3 3c.7.9 1.1 1 .9.1-.2-.9 0-1.7.5-1.8s1.8.5 3 1.3c1.2.9 2.2 1 2.2.3s-.4-1.6-.8-2-.6-.8-.3-.9c.3-.1 1.4.3 2.3.9s2.3 1 3 .9c.7-.1 1.2-.4 1.2-.7s.5-.5 1.1-.5c.6 0 1.3-.4 1.5-1 .2-.6 1.7-1 3.4-.9 1.7.1 2.2.4 1 .7-1.1.3-2.6 2.1-3.3 4-.7 1.9-.5 4.7.3 6.2s1.9 2.5 2.3 2.3c.4-.2.8.2.8 1s.4.9 1 .2c.5-.7 1.5-1.1 2.2-1s1 .9.8 1.7c-.2.8-.3 1.6 0 1.7.2.1-.2.7-.8 1.2-.7.5-1.1 1.7-.8 2.6.2.9.1 2.2-.3 2.9s-.3 1.7.1 2.2c.4.5 1.2 1.3 1.6 1.8.5.4 1.2.8 1.6.9.4 0 .5.2.2.4s-.9.4-1.3.4c-.5 0-1.1-.4-1.5-.9-.4-.6-1-.9-1.4-.7-.4.1-.4.7-.1 1.2.3.5.8 1.1 1.2 1.4s.2.3-.4.2c-.5-.1-1.3-.6-1.7-1-.4-.4-1.7-.5-2.8-.2-1.1.3-2.4.6-2.9.5-.5-.1-1.8.3-2.9.9S76.6 95.2 76 96c-.6.8-1.7 1.9-2.5 2.4s-1.8 1.3-2.1 1.9c-.3.5-.2.8.3.7.5-.1 1.2-.1 1.4 0 .3.1.5-.1.6-.4.1-.3 1.1-.8 2.2-1.1 1.2-.3 2-.1 1.9.5-.1.6.1 1.4.5 1.9.4.4.4 1 0 1.3s-.6 1-.3 1.4.7.9.9 1c.3.1-.1 1.3-.9 2.7-.8 1.4-1.8 2.8-2.4 2.9-.5.2-1.4.7-2 1.1-.5.4-1.2.8-1.5.8-.3 0-1.1.4-1.8.8s-1.7.8-2.2.8c-.5 0-1.6.4-2.4 1-.8.5-1 1-.3 1.1.6.1 1.2.5 1.2 1s-.3 1-.8 1.3c-.5.2-.2.5.7.7.8.1 1.3.4 1.1.6s-.1.5.2.7c.3.2 1 .2 1.4.1.5-.1 1.3-.5 1.8-.8.5-.3 1.7-.8 2.6-1.1.9-.3 1.7-.2 1.7.2.1.4.7.9 1.4 1 .7.2.8.4.2.6-.6.2-1.1.6-1.2.9-.1.3.7.6 1.6.6s1.7-.1 1.7-.3c0-.2.4-.4.9-.6s1.3.2 1.8.8c.5.6 1.3 1.5 1.7 2s1.7.9 2.8.9c1.1 0 2.2-.4 2.5-.8s.9-1 1.4-1.2c.5-.2 1.5-.6 2.2-.9.7-.3 1.5-.8 1.8-1.2.3-.4 1-.9 1.6-1.2.6-.3.4.3-.4 1.2-.8.9-2.2 2.4-3 3.1s-1.5 2.2-1.6 3.1c0 .9-.5 1.7-1.1 1.6-.6 0-1.4.1-1.8.2s-1.2.1-1.7-.2c-.5-.3-2.1-.6-3.5-.8-1.4-.2-3.4-.1-4.4.2-1 .3-1.8.9-1.8 1.4 0 .5-.3 1.3-.8 1.7-.4.4-1.2.7-1.8.7-.6 0-1.1 1-1.2 2.1-.1 1.2-.7 2.6-1.2 3.1-.6.5-1.2 1.2-1.4 1.5-.2.3-.8.7-1.5.8-.7.1-1.3.8-1.5 1.4s-.5 1.2-.8 1.2c-.3 0-.6.3-.8.7-.2.4-.9 1.1-1.7 1.7-.8.6-1.8 1-2.1.8-.4-.1-1.1.1-1.7.5s-1 1.1-1 1.7c0 .5.5 1 1.1 1 .6 0 1.1-.3 1.2-.8s.7-.7 1.4-.5c.7.2 1.6.8 1.9 1.3.3.5.8.7 1.2.4s.5-.8.4-1.1c-.2-.3 0-.8.3-1.3s.7-.6.9-.4c.2.2.6.1 1-.3s1-.7 1.2-.7c.3 0 .7-.4.9-.9.2-.5.9-.8 1.5-.6.6.2 1.6.1 2-.1.5-.2 1.2-.4 1.6-.3.4.1 1 0 1.2-.2.3-.2.8 0 1 .4s.8.7 1.1.6c.3 0 1 .3 1.5.7.5.4 1.3.7 1.8.7s.9-.3.8-.7c-.1-.4.2-.8.6-1s.9-.6 1-1 .1-1.1 0-1.7c-.1-.6.1-1.4.5-1.7.4-.4.9-.7 1.2-.7.3 0 .7-.3.8-.5.1-.2 1.2-.7 2.4-.9 1.2-.3 2.7-.5 3.4-.4s1.8.5 2.5 1 1.6.8 1.8.7 1.2-.2 2-.1c.8 0 1.8.2 2.2.3.4.2.9-.1 1.2-.7.2-.5 1-1.2 1.7-1.6.7-.4 1.8-.6 2.3-.4.5.1 1.5-.1 2.2-.6.7-.5 1.7-.8 2.2-.7.5.1 1.1.2 1.4.1.3 0 .8-.3 1.1-.6s.7-.3.8 0c.1.3.5.7 1 .9.4.2 1.2.2 1.7-.1.5-.3 1.8-.6 2.9-.6s2.6-.2 3.3-.3 1.8-.1 2.5.1 1.5.5 1.8.5c.3.1 1-.2 1.5-.6s1.4-.8 1.9-.9 1.4-.6 1.9-1c.5-.5 1.2-.9 1.5-.9.3 0 .9 0 1.2.1.4.1.6-.2.5-.6-.1-.4.5-1.1 1.3-1.7s1.8-1.1 2.3-1.2c.5-.1.9-.6 1-1.1 0-.5 0-1.2-.2-1.6s-.1-1 0-1.4c.2-.4-.5-.7-1.3-.7s-2.1.2-2.8.5l-1.8.6s-1.2-.1-1.7-.3c-.6-.2-1.3-.4-1.5-.5-.2-.1-.2-.3 0-.5s.5-.4.7-.4c.2 0 .4-.1.4-.3s-.3-.3-.9-.5c-.5-.1-1.4-.1-1.8.1-.5.2-.3-.1.3-.5.7-.5 1.5-.8 2-.7.4 0 1.2-.1 1.7-.4.5-.3.8-.8.7-1.3-.2-.4-.7-.8-1.2-.8s-.6-.3-.2-.6.9-.9 1.2-1.1.8-.3 1.1 0c.3.3 1 .2 1.4-.1.5-.3 1-.9 1.2-1.2.2-.3.2-.6-.1-.6-.2-.1-.3-.3-.1-.5.2-.2-.2-.5-.7-.5-.6-.1-.8-.4-.6-.8s.7-.6 1-.5c.3.1.7.4.8.6.1.3.5 0 .9-.5s1.1-1.1 1.4-1.3c.4-.2.8-1.1.8-2.1.1-1 .4-2.6.8-3.5 1.1-.2 1.2-1.3.9-1.6z"/>
  <path fill="#2A2A2A" d="M134.3 123.5c-.3 0-.8.1-1 .2-.2.1-.1.4.3.6.4.2 1 .3 1.4.2.4-.1.5-.4.3-.6-.3-.2-.7-.4-1-.4zM65.1 51.2c-.5.4-.9 1.5-.7 2.5.2 1 .8 2 1.5 2.3.6.3 1.3-.1 1.5-.7.2-.7 0-2-.5-3s-1.2-1.4-1.8-1.1zM62.1 75.1c.1-.6-.2-1.1-.7-1.2-.5-.1-.8-.6-.6-1.1.2-.5.2-1.3 0-1.7-.2-.4 0-.8.3-.8.4-.1 1 .9 1.4 2s.5.9.3-.6-1.1-2.8-2-2.8c-.9 0-1.3-.4-.8-.8s.1-1.8-.9-3.2c-1-1.4-1.9-3.1-1.9-3.7-.1-.6-.5-1.4-1-1.6-.5-.3-1.8-.6-2.8-.7-1-.1-2.4.2-3.1.6-.6.4-1.5.8-1.9.8-.4 0-.9.3-1.1.5-.2.2-.9.5-1.5.7s-1.4.3-1.7.3c-.3.1 0-.3.7-.9.7-.5 1.7-1.3 2.4-1.6.6-.3.5-.9-.2-1.3s-1.7-1.1-2.2-1.5-.7-.4-.5 0c.2.5-.1.9-.8.9-.7 0-1.2.6-1.1 1.4.1.8-.2 2-.7 2.7s-.8.9-.8.4c.1-.5.3-1.1.6-1.5.3-.3.2-1.1-.1-1.7-.3-.6-1-1-1.4-.9-.5.1-.6.5-.3.9s.1.7-.5.7c-.5 0-1.2-.2-1.5-.5s-1.3-.3-2.2-.1c-.9.2-1.7.8-1.7 1.3 0 .4-.3.8-.6.8s-.7.5-.9 1c-.2.6 0 1.2.4 1.4.5.2.7.6.6.8-.1.3-.6.5-1.1.5-.5 0-.8.2-.8.5.1.3-.5.6-1.1.8-.7.2-1.1.8-.9 1.3.2.5.9 1 1.7 1 .7 0 1.2.2 1.1.4-.1.2.3.2.9 0 .6-.2 1.4-.4 1.8-.3s.1.7-.7 1.5c-.8.8-2.2 1.8-3.2 2.2-1 .4-1.5.9-1.2 1.2.3.3-.2.7-1.1.9-1 .2-2.2.1-2.7-.1s-1.3 0-1.7.5-.9.4-1.2-.3-1.7-1.3-3.2-1.6c-1.6-.2-2.8-.2-2.8.1s-.7.3-1.6.1-1.7.4-1.9 1.3c-.2.9.1 1.4.5.9.4-.4.9-.3.9.3.1.6.3 1.1.5 1.2.2.1.5.7.7 1.2.2.6.1 1-.3 1.1-.4 0-.8-.2-.8-.6s-.8-.6-1.6-.5c-.8 0-.7.6.2 1.3 1 .7 2.3 1.1 3 .9.7-.2 1.4.1 1.6.7.2.5-.3 1.1-1.2 1.3-.9.2-1.6.6-1.8 1-.1.4 0 1 .2 1.3s-.3.6-1.3.7-1.6.5-1.3 1.1c.2.6.1 1.2-.2 1.3-.3.1-.2.5.3.8.5.3 1.3.4 1.7.3s.6 0 .3.3c-.2.3.2.4 1 .3.8-.2 1.6.4 1.8 1.2.2.8 1.9 1.5 3.7 1.5 1.9 0 2.9.5 2.3 1.1s-1.4.9-1.9.6c-.4-.3-1.3.5-2 1.6-.7 1.2-1 2.1-.7 2s.1.6-.5 1.4c-.6.8-2 2.1-3.2 2.9-1.2.8-1.8 1.5-1.3 1.5s1.4-.3 2-.8c.6-.4 1.5-.6 1.9-.3.4.2 1.4.4 2.2.5.8 0 1.9-.4 2.4-.9s1-.8 1.1-.5.6.5 1.3.6c.7.1 0 .4-1.5.9s-3.7.8-4.8.8-2.3.4-2.5.9-1.1 1-1.8 1.2c-.7.2-1.1.7-.9 1.1.3.4.3.9.2 1.2-.2.3 0 .7.3.8s.1.3-.4.4c-.5.1-1.4-.1-1.8-.5-.5-.4-1-.5-1.2-.2-.2.3-.5.3-.6.1-.2-.2-1 .1-1.9.5-.9.5-1.6 1.1-1.5 1.3.1.2 1.9.3 4 .2 2.1-.1 3.2.3 2.5.8-.7.6-2 1.2-2.9 1.4-.9.2-1.8 1-2.1 1.7-.3.7-.1 1.3.5 1.3s1.1.3 1.2.7c.1.4 1.5.3 3.1-.2s1.9-.3.7.5-2.6 1.8-3.1 2.2c-.5.4-.2.8.6.8.9 0 2.5-.5 3.6-1.1s2-.8 1.9-.3c-.1.4-.9 1.1-1.8 1.6s-1.3.8-.8.8.8.3.7.6.4.4 1.2.2c.8-.2 1.9-.1 2.3.2.4.3 1.7.4 2.9.3s3-.5 4.1-.8c1.1-.3 2.7-1.1 3.5-1.6s1.3-1.6 1-2.3c-.3-.7 0-1.2.7-1.1.7 0 1 .4.9.8s.2.7.9.7 1.7-.5 2.4-1.2c.6-.7 1.5-1.2 2-1.2s1-.5 1.1-1.1c.2-.6 1.9-1.3 3.8-1.5s3.6-.7 3.8-1.2c.2-.4.5-.4.8.1.3.5.9.6 1.3.2.4-.4 1.1-.6 1.5-.4s1.5.3 2.5.3 1.2-.7.6-1.6c-.7-.9-.8-1.8-.3-2s1.3-.9 1.8-1.5.9-1.6.8-2.2c-.1-.6.3-1.5.8-2.1.5-.6 1.1-1.7 1.3-2.4.2-.7.1-2.5-.1-4s-.8-3-1.2-3.3c-.4-.3-.4-.7.1-1.1.5-.3.9-1.1.9-1.8s-.4-1.8-.8-2.5-.7-1.8-.6-2.5-.2-1.5-.7-1.9c-.5-.4-.7-1-.5-1.4s.8-.7 1.2-.6.9.1 1 .1c.1 0 .2-.4.2-.9-.1-.5.2-.8.5-.8.3.1 1-.2 1.5-.6.5-.4 1-1.2 1-1.6s.8-.8 1.6-.7c.7.1 1.4-.3 1.5-.8z"/>
</svg>